<svg xmlns="http://www.w3.org/2000/svg" width="20" height="20" fill="currentColor" viewBox="0 0 20 20">
  <path fill="#33A9FF" fill-rule="evenodd" d="M9.565 1.114a1.65 1.65 0 0 1 .871 0c.331.09.61.308.832.483l.063.048 5.652 4.396.064.05c.314.244.59.459.797.737.18.245.315.52.397.813.094.334.093.684.093 1.081v6.143c0 .44 0 .819-.026 1.13-.027.33-.086.658-.247.973a2.5 2.5 0 0 1-1.092 1.093c-.316.16-.643.22-.973.247-.312.025-.69.025-1.13.025H5.135c-.44 0-.818 0-1.13-.025-.33-.027-.658-.087-.973-.247a2.5 2.5 0 0 1-1.092-1.093c-.161-.315-.22-.643-.247-.972a14.916 14.916 0 0 1-.026-1.13V8.721c0-.397 0-.747.093-1.08a2.5 2.5 0 0 1 .397-.814c.206-.278.483-.493.797-.736l.064-.05L8.67 1.645l.062-.05c.223-.174.502-.393.833-.482Zm.43 1.62a6.06 6.06 0 0 0-.302.227L4.042 7.357c-.416.323-.493.392-.545.463a.833.833 0 0 0-.132.27c-.024.085-.031.188-.031.714v6.03c0 .48 0 .79.02 1.026.018.227.05.31.07.352.08.156.208.284.365.364.041.02.125.052.351.07.236.02.547.02 1.027.02h9.667c.48 0 .79 0 1.027-.02.226-.018.31-.05.351-.07a.833.833 0 0 0 .364-.364c.021-.042.053-.125.071-.352.02-.236.02-.546.02-1.027V8.804c0-.526-.007-.63-.03-.714a.836.836 0 0 0-.133-.27c-.052-.07-.13-.14-.545-.463l-5.652-4.396a5.99 5.99 0 0 0-.307-.23l-.006.004Zm-3.43 8.126a.833.833 0 0 1 1.014.599 2.501 2.501 0 0 0 4.843 0 .833.833 0 0 1 1.614.415 4.168 4.168 0 0 1-8.07 0 .833.833 0 0 1 .598-1.014Z" clip-rule="evenodd"/>
</svg>
