<svg xmlns="http://www.w3.org/2000/svg" width="20" height="20" fill="currentColor" viewBox="0 0 20 20">
  <g clip-path="url(#a)">
    <path fill="#000" fill-opacity=".6" fill-rule="evenodd" d="M2.545 9.166h3.33a13.584 13.584 0 0 1 2.23-6.425 7.507 7.507 0 0 0-5.56 6.425ZM10 2.96a11.917 11.917 0 0 0-2.452 6.207h4.904A11.917 11.917 0 0 0 10 2.96Zm2.452 7.874A11.917 11.917 0 0 1 10 17.041a11.917 11.917 0 0 1-2.452-6.208h4.904Zm-6.577 0h-3.33a7.507 7.507 0 0 0 5.56 6.425 13.584 13.584 0 0 1-2.23-6.425Zm6.02 6.425a13.583 13.583 0 0 0 2.23-6.425h3.329a7.507 7.507 0 0 1-5.56 6.425Zm5.559-8.092h-3.33a13.583 13.583 0 0 0-2.23-6.425 7.507 7.507 0 0 1 5.56 6.425ZM.833 10a9.167 9.167 0 1 1 18.333 0A9.167 9.167 0 0 1 .833 10Z" clip-rule="evenodd"/>
  </g>
  <defs>
    <clipPath id="a">
      <path fill="#fff" d="M0 0h20v20H0z"/>
    </clipPath>
  </defs>
</svg>
