<svg xmlns="http://www.w3.org/2000/svg" width="20" height="20" fill="currentColor" viewBox="0 0 20 20">
  <path fill="#000" fill-opacity=".6" fill-rule="evenodd" d="M6.8.833h6.398c.44 0 .819 0 1.13.025.33.027.658.087.973.247a2.5 2.5 0 0 1 1.093 1.093c.16.315.22.643.247.972.025.313.025.692.025 1.13v11.398c0 .44 0 .819-.025 1.13-.027.33-.086.658-.247.973a2.5 2.5 0 0 1-1.093 1.093c-.315.16-.643.22-.972.247a14.88 14.88 0 0 1-1.13.025H6.8c-.44 0-.818 0-1.13-.025-.33-.027-.658-.086-.973-.247A2.5 2.5 0 0 1 3.605 17.8c-.16-.315-.22-.643-.247-.972a14.917 14.917 0 0 1-.025-1.13V4.3c0-.44 0-.818.025-1.13.027-.33.087-.658.247-.973a2.5 2.5 0 0 1 1.093-1.093c.315-.16.643-.22.972-.247.313-.025.692-.025 1.13-.025ZM5.807 2.52c-.226.018-.31.05-.351.07a.833.833 0 0 0-.365.365c-.02.04-.052.125-.07.351C5 3.542 5 3.853 5 4.333v11.333c0 .48 0 .791.02 1.027.018.226.05.31.07.352.08.156.208.284.365.364.04.02.125.052.351.07.236.02.547.02 1.027.02h6.333c.48 0 .791 0 1.027-.02.226-.018.31-.05.352-.07a.832.832 0 0 0 .364-.364c.02-.042.052-.126.07-.352.02-.236.02-.546.02-1.027V4.333c0-.48 0-.79-.02-1.027-.018-.226-.05-.31-.07-.351a.833.833 0 0 0-.364-.365c-.041-.02-.126-.052-.352-.07-.236-.02-.546-.02-1.027-.02H6.833c-.48 0-.79 0-1.027.02ZM8.75 14.583a1.25 1.25 0 1 1 2.5 0 1.25 1.25 0 0 1-2.5 0Z" clip-rule="evenodd"/>
</svg>
