<svg width="64" height="78" viewBox="0 0 64 78" fill="none" xmlns="http://www.w3.org/2000/svg">
<rect y="14" width="64" height="64" rx="12.8" fill="white"/>
<rect x="0.25" y="14.25" width="63.5" height="63.5" rx="12.55" stroke="black" stroke-opacity="0.1" stroke-width="0.5"/>
<path d="M18.7529 46.0077C28.7345 27.0084 39.3457 13.3546 47.0165 5.83982C48.396 4.48838 50.5039 6.01759 49.9372 7.86375C45.6514 21.8274 42.6925 43.9298 41.3698 54.5485C41.2284 55.684 40.1171 56.4276 39.0123 56.1301L21.0966 51.3066C18.7992 50.6881 17.6464 48.1139 18.7529 46.0077Z" fill="#7EC9FF"/>
<path d="M35.001 55.4138C34.8024 42.4601 36.0806 31.9037 37.4512 24.7939C38.0317 21.7827 41.7201 21.0797 43.3975 23.6469C48.673 31.7208 52.209 39.8467 54.0164 47.3043C54.3851 48.826 53.6879 50.3883 52.3545 51.2089L40.6168 58.4325C38.1832 59.9302 35.0449 58.271 35.001 55.4138Z" fill="#1A93EB"/>
<path d="M7.22378 54.8962C5.81811 53.6323 7.07196 51.3347 8.89544 51.833L54.4858 64.2917C56.3638 64.805 56.8168 67.2613 55.2454 68.4107C53.0491 70.0171 50.3897 70.8654 47.6688 70.8274L29.812 70.5778C26.441 70.5307 23.2014 69.2624 20.6944 67.0083L7.22378 54.8962Z" fill="#1B5BBC"/>
</svg>
