<svg width="16" height="17" viewBox="0 0 16 17" fill="none" xmlns="http://www.w3.org/2000/svg">
<g id="icon/play">
<path id="Vector" d="M7.19967 11.0997L10.313 8.76634C10.493 8.63301 10.493 8.36634 10.313 8.23301L7.19967 5.89967C6.97967 5.73301 6.66634 5.89301 6.66634 6.16634V10.833C6.66634 11.1063 6.97967 11.2663 7.19967 11.0997ZM7.99967 1.83301C4.31967 1.83301 1.33301 4.81967 1.33301 8.49967C1.33301 12.1797 4.31967 15.1663 7.99967 15.1663C11.6797 15.1663 14.6663 12.1797 14.6663 8.49967C14.6663 4.81967 11.6797 1.83301 7.99967 1.83301ZM7.99967 13.833C5.05967 13.833 2.66634 11.4397 2.66634 8.49967C2.66634 5.55967 5.05967 3.16634 7.99967 3.16634C10.9397 3.16634 13.333 5.55967 13.333 8.49967C13.333 11.4397 10.9397 13.833 7.99967 13.833Z" fill="black"/>
</g>
</svg>
